HIERARCHY
ROOT ui
{
	 OFFSET 0 0 0
	 CHANNELS 3 XPosition YPosition Z Position
	 EndSite
	 {
	 OFFSET 0 -1 0
	 }
}
ROOT li
{
	 OFFSET 0 0 0
	 CHANNELS 3 XPosition YPosition Z Position
	 EndSite
	 {
	 OFFSET 0 -1 0
	 }
}
ROOT ul
{
	 OFFSET 0 0 0
	 CHANNELS 3 XPosition YPosition Z Position
	 EndSite
	 {
	 OFFSET 0 -1 0
	 }
}
ROOT ll
{
	 OFFSET 0 0 0
	 CHANNELS 3 XPosition YPosition Z Position
	 EndSite
	 {
	 OFFSET 0 -1 0
	 }
}
ROOT tt
{
	 OFFSET 0 0 0
	 CHANNELS 3 XPosition YPosition Z Position
	 EndSite
	 {
	 OFFSET 0 -1 0
	 }
}
ROOT tb
{
	 OFFSET 0 0 0
	 CHANNELS 3 XPosition YPosition Z Position
	 EndSite
	 {
	 OFFSET 0 -1 0
	 }
}
ROOT td
{
	 OFFSET 0 0 0
	 CHANNELS 3 XPosition YPosition Z Position
	 EndSite
	 {
	 OFFSET 0 -1 0
	 }
}
ROOT v
{
	 OFFSET 0 0 0
	 CHANNELS 3 XPosition YPosition Z Position
	 EndSite
	 {
	 OFFSET 0 -1 0
	 }
}
ROOT bn
{
	 OFFSET 0 0 0
	 CHANNELS 3 XPosition YPosition Z Position
	 EndSite
	 {
	 OFFSET 0 -1 0
	 }
}
MOTION
Frames: 21
Frame Time: 0.002
0.005474456787109375	-0.005181477069854736	0		0.5137631225585938	-2.493306884765625	0		-0.958161376953125	0.10190270233154297	0		-0.617191162109375	-2.555968017578125	0		1.83428271484375	-0.6950576782226563	0		3.33951220703125	-0.17243211364746094	0		4.59393798828125	0.07157067108154297	0		5.8953193359375	0.31193603515625	0		-0.13911618041992188	5.92232568359375	0		
0.009319231986999512	-0.0013325649499893188	0		0.4714842529296875	-2.493844482421875	0		-1.030415771484375	0.09880854034423828	0		-0.6594987182617188	-2.558478271484375	0		1.8291524658203124	-0.6881307983398437	0		3.30034326171875	-0.16907894897460937	0		4.58254150390625	0.05751461791992187	0		5.90333447265625	0.327587646484375	0		-0.14016897583007812	5.92324658203125	0		
0.007260135173797607	0.006571562767028809	0		0.517331787109375	-2.489602294921875	0		-0.9833685302734375	0.11406503295898437	0		-0.669375	-2.5334541015625	0		1.770262451171875	-0.6664871215820313	0		3.30689892578125	-0.18935816955566406	0		4.565212890625	0.04553659820556641	0		5.90317236328125	0.32735165405273436	0		0.007226236820220947	5.955123046875	0		
0.009033573150634766	-0.0016002990007400514	0		0.4711164855957031	-2.49412744140625	0		-1.000401123046875	0.12016426086425781	0		-0.6449381103515625	-2.563927978515625	0		1.79909228515625	-0.6700513916015625	0		3.2917939453125	-0.18834429931640626	0		4.54593408203125	0.03358899688720703	0		5.9069501953125	0.3190720520019531	0		-0.007944786071777343	5.94518310546875	0		
0.004029510021209717	0.0023015620708465574	0		0.5041573181152343	-2.485747802734375	0		-0.9614628295898437	0.11947466278076171	0		-0.6797415771484375	-2.543613525390625	0		1.7382789306640625	-0.651401611328125	0		3.24646484375	-0.20792092895507813	0		4.5385078125	0.006485045909881592	0		5.9030029296875	0.3269131469726563	0		-0.14224417114257812	5.92484619140625	0		
-5.601000040769577E-6	-8.279790282249451E-4	0		0.457092041015625	-2.490292236328125	0		-1.0004534301757813	0.11982475280761719	0		-0.6151446533203125	-2.573679443359375	0		1.735228271484375	-0.6555494995117187	0		3.23721142578125	-0.2269897918701172	0		4.5073525390625	-0.005288074970245362	0		5.89790087890625	0.3187813720703125	0		-0.17531471252441405	5.91811279296875	0		
0.009054652214050293	-0.0021514549255371093	0		0.49604461669921873	-2.500023193359375	0		-1.03026708984375	0.1280304718017578	0		-0.660129638671875	-2.578267333984375	0		1.7324407958984376	-0.6457074584960938	0		3.25216259765625	-0.2363888702392578	0		4.50131884765625	-0.013398809432983399	0		5.91108251953125	0.32641244506835937	0		-0.12505008697509765	5.932228515625	0		
0.012242985725402831	5.921170115470887E-4	0		0.4743312683105469	-2.4909365234375	0		-0.9920145874023437	0.13529067993164062	0		-0.6158895263671875	-2.573086669921875	0		1.7356463623046876	-0.6419541625976563	0		3.2361904296875	-0.24536676025390625	0		4.5003984375	-0.018574357986450196	0		5.9073515625	0.33528451538085935	0		-0.1420436553955078	5.92424462890625	0		
0.007534134864807129	0.0054322538375854495	0		0.5155601196289062	-2.492718017578125	0		-0.9637822875976563	0.13567222595214845	0		-0.6635154418945313	-2.563667236328125	0		1.71794482421875	-0.6369205932617188	0		3.203200439453125	-0.26111273193359374	0		4.4804599609375	-0.030485742568969725	0		5.9075712890625	0.3351130065917969	0		-0.02372484016418457	5.93440771484375	0		
0.009722064971923829	-0.002832062005996704	0		0.5138624877929687	-2.494921875	0		-0.89835693359375	0.1445364990234375	0		-0.5813832397460937	-2.5790283203125	0		1.709291748046875	-0.6340140991210937	0		3.207160400390625	-0.2863612060546875	0		4.4735810546875	-0.043569099426269534	0		5.90275537109375	0.3270205078125	0		-0.14165716552734375	5.92377587890625	0		
0.0051456298828125	9.88996982574463E-4	0		0.512243896484375	-2.497133056640625	0		-0.9739835205078125	0.14530831909179687	0		-0.6508582763671875	-2.57033349609375	0		1.709670654296875	-0.6342335205078125	0		3.1982763671875	-0.3054327392578125	0		4.46766552734375	-0.06466104125976563	0		5.90822705078125	0.3347991638183594	0		-0.1754476318359375	5.91898974609375	0		
0.005581233024597168	7.35135018825531E-4	0		0.47071575927734377	-2.497807373046875	0		-0.9735505981445313	0.14503645324707032	0		-0.610365478515625	-2.570142578125	0		1.710117919921875	-0.6344560546875	0		3.1848544921875	-0.2954388122558594	0		4.464021484375	-0.07077801513671875	0		5.90865673828125	0.3346538391113281	0		-0.15998651123046875	5.92852783203125	0		
0.01406294536590576	-6.328909993171692E-4	0		0.47329022216796873	-2.496084716796875	0		-1.0188636474609376	0.15937858581542969	0		-0.6396917724609374	-2.56100927734375	0		1.714667236328125	-0.6317350463867187	0		3.1819912109375	-0.32258981323242186	0		4.45734326171875	-0.08384969329833984	0		5.9212666015625	0.34335247802734375	0		-0.007382855892181396	5.94420361328125	0		
0.009678898811340332	0.0041702108383178714	0		0.5179313354492188	-2.49393408203125	0		-0.9083970947265625	0.1526034393310547	0		-0.58413134765625	-2.565031982421875	0		1.6961094970703126	-0.64070263671875	0		3.2045712890625	-0.3210797424316406	0		4.4497314453125	-0.09590352630615234	0		5.921806640625	0.34322256469726564	0		-0.12512157440185548	5.9335361328125	0		
0.0072136931419372555	-5.661499872803688E-5	0		0.4895831604003906	-2.493797607421875	0		-0.9946692504882813	0.16348733520507813	0		-0.6184501953125	-2.562841552734375	0		1.6816474609375	-0.6457263793945313	0		3.1688740234375	-0.3427817077636719	0		4.44624169921875	-0.10200881958007812	0		5.92238671875	0.34309848022460937	0		-0.006525769233703614	5.9436708984375	0		
0.012775191307067871	-0.004394196033477783	0		0.5152047729492187	-2.498392822265625	0		-0.9231177978515624	0.1582352752685547	0		-0.5828008422851563	-2.56559912109375	0		1.665348388671875	-0.6407266845703125	0		3.17133642578125	-0.3549996032714844	0		4.43667236328125	-0.11603307342529297	0		5.922994140625	0.3429748229980469	0		-0.15828631591796874	5.9274501953125	0		
0.008456659317016602	-5.997220277786254E-4	0		0.4738821105957031	-2.499088134765625	0		-0.9934342651367187	0.16289532470703125	0		-0.6469583129882812	-2.554012451171875	0		1.676828369140625	-0.6531063842773438	0		3.186849609375	-0.3643973083496094	0		4.4421943359375	-0.12426597595214844	0		5.92361328125	0.3428441162109375	0		-0.15681492614746093	5.92616064453125	0		
0.024155515670776367	0.0049247550964355465	0		0.5315374145507813	-2.501116943359375	0		-0.9127716674804688	0.1655250701904297	0		-0.6022066040039062	-2.5488916015625	0		1.680515625	-0.64938427734375	0		3.168532470703125	-0.36034689331054687	0		4.43687060546875	-0.12036292266845704	0		5.92422509765625	0.3426990966796875	0		-0.13837939453125	5.92164208984375	0		
-0.03532894897460938	-5.428509712219238E-4	0		0.46732733154296874	-2.489509765625	0		-0.92810205078125	0.171448974609375	0		-0.6144876098632812	-2.54300244140625	0		1.660133544921875	-0.6483453979492187	0		3.1537421875	-0.3893585205078125	0		4.439275390625	-0.13458074951171875	0		5.91582373046875	0.34365469360351564	0		-0.12275084686279297	5.93216357421875	0		
0.013259807586669921	0.0025405330657958984	0		0.5177764892578125	-2.499445068359375	0		-0.9316182250976562	0.1672174530029297	0		-0.6425615844726562	-2.516897216796875	0		1.651535400390625	-0.65947314453125	0		3.15122021484375	-0.39454632568359377	0		4.43573681640625	-0.14073707580566405	0		5.92046533203125	0.35141055297851564	0		-0.1374403839111328	5.92109130859375	0		
-0.06437269592285157	-0.004685215950012207	0		0.474216796875	-2.5031220703125	0		-0.942030517578125	0.17608450317382812	0		-0.6050748291015625	-2.51766943359375	0		1.64590234375	-0.6676484985351563	0		3.174421630859375	-0.41509564208984373	0		4.44109814453125	-0.14903497314453126	0		5.93480810546875	0.3420054321289063	0		-0.12187948608398437	5.9316171875	0		
